Coordinates
version=1
nRows=21
nColumns=22
inDegrees=yes

Units are S.I. units (second, meters, Newtons, ...)
If the header above contains a line with 'inDegrees', this indicates whether rotational values are in degrees (yes) or radians (no).

endheader
time	pelvis_tilt	pelvis_list	pelvis_rotation	pelvis_tx	pelvis_ty	pelvis_tz	hip_flexion_r	hip_adduction_r	hip_rotation_r	knee_angle_r	ankle_angle_r	subtalar_angle_r	hip_flexion_l	hip_adduction_l	hip_rotation_l	knee_angle_l	ankle_angle_l	subtalar_angle_l	lumbar_extension	lumbar_bending	lumbar_rotation
      0.01000000	     -2.10177758	     -2.99214044	     -2.52750469	      0.07886291	      0.95753374	      1.18987011	      5.92875185	      3.08304270	     -2.21810102	    -12.88458092	     10.65764849	     -1.52261860	      4.83851935	     -5.24127988	     -8.55593492	    -14.58176792	     11.31425121	     -3.87799904	      1.26214727	      3.35568877	     -9.21448883
      0.02000000	     -2.10596526	     -2.98971769	     -2.52655924	      0.07889448	      0.95753418	      1.18988078	      5.93114419	      3.08173985	     -2.21747357	    -12.88384548	     10.65713345	     -1.52458905	      4.84074089	     -5.23917571	     -8.55682133	    -14.58060990	     11.31461207	     -3.87696604	      1.25521370	      3.36067556	     -9.21639575
      0.03000000	     -2.11091945	     -2.98701804	     -2.52540767	      0.07892937	      0.95753466	      1.18989348	      5.93503903	      3.08009161	     -2.21599245	    -12.88455639	     10.65626917	     -1.52716606	      4.84377522	     -5.23705348	     -8.55771208	    -14.57967590	     11.31496179	     -3.87555995	      1.24673735	      3.36714935	     -9.22303622
      0.04000000	     -2.11595019	     -2.98545447	     -2.51775705	      0.07896775	      0.95753313	      1.18990798	      5.94633285	      3.08072047	     -2.20713192	    -12.90211798	     10.65160363	     -1.54102609	      4.85237420	     -5.23762980	     -8.55688032	    -14.58771195	     11.31499932	     -3.86779831	      1.23946570	      3.37567789	     -9.27509795
      0.05000000	     -2.12250519	     -2.98295951	     -2.51282569	      0.07901763	      0.95753008	      1.18992550	      5.94933517	      3.08006260	     -2.20739554	    -12.89998402	     10.65211175	     -1.54318404	      4.85679963	     -5.23605662	     -8.55650559	    -14.58618978	     11.31515965	     -3.86663977	      1.23173042	      3.38129373	     -9.28026914
      0.06000000	     -2.13028134	     -2.98244488	     -2.48841954	      0.07907983	      0.95752119	      1.18992913	      5.95492247	      3.08206396	     -2.20056869	    -12.90685972	     10.65521167	     -1.55973383	      4.87082122	     -5.23762762	     -8.54122126	    -14.59543501	     11.31190138	     -3.85734870	      1.23033521	      3.38860140	     -9.35924407
      0.07000000	     -2.14490959	     -2.98587165	     -2.44210824	      0.07915540	      0.95749854	      1.18988884	      5.95513528	      3.08417167	     -2.24065760	    -12.89131349	     10.65710607	     -1.60581916	      4.89740741	     -5.23844970	     -8.47933321	    -14.60875794	     11.31585379	     -3.83887189	      1.23800506	      3.40054865	     -9.42498090
      0.08000000	     -2.14593160	     -2.98076835	     -2.42401986	      0.07923943	      0.95749242	      1.18990245	      5.95332671	      3.08234963	     -2.21745525	    -12.89970679	     10.65953167	     -1.61288596	      4.89434931	     -5.23434554	     -8.47765368	    -14.60357929	     11.31605528	     -3.83686739	      1.22813458	      3.40016269	     -9.46617775
      0.09000000	     -2.14037412	     -2.97074186	     -2.39716138	      0.07935028	      0.95749353	      1.18987868	      5.93269653	      3.07274602	     -2.18744882	    -12.89147533	     10.67443082	     -1.62673230	      4.88414814	     -5.22059751	     -8.45596971	    -14.59908348	     11.31305422	     -3.83273527	      1.21474560	      3.40078091	     -9.52624050
      0.10000000	     -2.13038031	     -2.96089255	     -2.36199014	      0.07946669	      0.95749757	      1.18986799	      5.90639903	      3.06538264	     -2.15505851	    -12.88352056	     10.68928939	     -1.64012158	      4.86754558	     -5.20821818	     -8.43181195	    -14.58882508	     11.31199601	     -3.82960700	      1.19467797	      3.39188403	     -9.58054517
      0.11000000	     -2.07782294	     -2.94674904	     -2.31283066	      0.07965626	      0.95757049	      1.18980833	      5.80824971	      3.04733572	     -2.14877909	    -12.83702062	     10.71517317	     -1.68909260	      4.78656846	     -5.18080434	     -8.37080978	    -14.55052884	     11.29978738	     -3.81904847	      1.13432244	      3.38245640	     -9.63396109
      0.12000000	     -2.06642838	     -2.93583285	     -2.28991472	      0.07977649	      0.95757328	      1.18979556	      5.78803075	      3.03832036	     -2.09962958	    -12.84350135	     10.71857736	     -1.69852267	      4.76795462	     -5.16771422	     -8.36680278	    -14.54442953	     11.30344895	     -3.81906837	      1.11096693	      3.38158350	     -9.68219637
      0.13000000	     -2.05177208	     -2.92223699	     -2.26029935	      0.07992054	      0.95758413	      1.18978822	      5.74618989	      3.02772187	     -2.05009590	    -12.82060027	     10.74221117	     -1.71467387	      4.73964554	     -5.14987847	     -8.34280645	    -14.52794078	     11.30288858	     -3.81631994	      1.08741183	      3.37277754	     -9.72127067
      0.14000000	     -2.02827734	     -2.91298476	     -2.23473092	      0.08005869	      0.95761639	      1.18981027	      5.69830777	      3.02264458	     -2.01694078	    -12.80195049	     10.75804040	     -1.73864791	      4.69324432	     -5.13733374	     -8.31689687	    -14.49680544	     11.29568752	     -3.81093447	      1.05098165	      3.36402157	     -9.74684950
      0.15000000	     -2.03424899	     -2.90961159	     -2.22441602	      0.08014915	      0.95760525	      1.18984030	      5.69722191	      3.02143011	     -2.01560040	    -12.80085168	     10.75802496	     -1.73987597	      4.69333613	     -5.13581609	     -8.31903449	    -14.49213975	     11.29548123	     -3.81073380	      1.04231808	      3.37002154	     -9.74380465
      0.16000000	     -2.04134932	     -2.90732813	     -2.22031098	      0.08020922	      0.95759974	      1.18991469	      5.69876281	      3.02442921	     -2.01568596	    -12.79762157	     10.75857104	     -1.74107834	      4.69447333	     -5.13825187	     -8.31960805	    -14.48608805	     11.29478806	     -3.81039245	      1.03163628	      3.37071578	     -9.74177172
      0.17000000	     -2.05041300	     -2.90642838	     -2.22429945	      0.08022965	      0.95760224	      1.19001665	      5.70425312	      3.02985692	     -2.02008721	    -12.79193521	     10.75880088	     -1.74214534	      4.69807596	     -5.14343771	     -8.31959601	    -14.47883729	     11.29325467	     -3.80979979	      1.01805557	      3.37167049	     -9.73825487
      0.18000000	     -2.07459847	     -2.93745508	     -2.25086097	      0.08024067	      0.95759799	      1.19016420	      5.73439560	      3.06935811	     -2.07274236	    -12.79631067	     10.74235341	     -1.74880941	      4.70711961	     -5.18604120	     -8.32970490	    -14.46094336	     11.27257657	     -3.80305003	      1.02333577	      3.41122132	     -9.67618664
      0.19000000	     -2.16126481	     -2.97774449	     -2.28057785	      0.08010448	      0.95749590	      1.19035417	      5.85661415	      3.12610935	     -2.09849089	    -12.82793502	     10.67164331	     -1.75477631	      4.83654833	     -5.25495742	     -8.37950262	    -14.52217070	     11.29687184	     -3.80319081	      1.08354405	      3.45986847	     -9.64883338
      0.20000000	     -2.26693270	     -3.00188908	     -2.30676372	      0.07997170	      0.95736316	      1.19052858	      6.00276939	      3.16195648	     -2.16362334	    -12.86528890	     10.66239807	     -1.74835447	      4.97851055	     -5.30100406	     -8.38791099	    -14.56748439	     11.30536475	     -3.79108926	      1.17236191	      3.48899204	     -9.60763219
      0.21000000	     -2.29123507	     -3.02256925	     -2.34089912	      0.07990476	      0.95736209	      1.19069501	      6.04370821	      3.19067386	     -2.21958202	    -12.87737946	     10.64853354	     -1.74523046	      4.99958481	     -5.33404580	     -8.39696309	    -14.56431299	     11.29190498	     -3.78605317	      1.17173912	      3.51513729	     -9.56192872
